<svg width="24" height="24" viewBox="0 0 24 24" fill="none" xmlns="http://www.w3.org/2000/svg">
<path d="M9.68003 18.8C10.8674 18.8 11.83 17.8374 11.83 16.65C11.83 15.4626 10.8674 14.5 9.68003 14.5C8.49262 14.5 7.53003 15.4626 7.53003 16.65C7.53003 17.8374 8.49262 18.8 9.68003 18.8Z" stroke="#0841D5" stroke-width="1.2" stroke-miterlimit="10" stroke-linecap="round" stroke-linejoin="round"/>
<path d="M7.53 16.6499H4.5" stroke="#0841D5" stroke-width="1.2" stroke-miterlimit="10" stroke-linecap="round" stroke-linejoin="round"/>
<path d="M19.4999 16.6499H14.1699" stroke="#0841D5" stroke-width="1.2" stroke-miterlimit="10" stroke-linecap="round" stroke-linejoin="round"/>
<path d="M14.3099 9.8C15.4973 9.8 16.4599 8.83741 16.4599 7.65C16.4599 6.46259 15.4973 5.5 14.3099 5.5C13.1225 5.5 12.1599 6.46259 12.1599 7.65C12.1599 8.83741 13.1225 9.8 14.3099 9.8Z" stroke="#0841D5" stroke-width="1.2" stroke-miterlimit="10" stroke-linecap="round" stroke-linejoin="round"/>
<path d="M16.47 7.6499H19.5" stroke="#0841D5" stroke-width="1.2" stroke-miterlimit="10" stroke-linecap="round" stroke-linejoin="round"/>
<path d="M4.5 7.6499H9.83" stroke="#0841D5" stroke-width="1.2" stroke-miterlimit="10" stroke-linecap="round" stroke-linejoin="round"/>
</svg>
