<svg width="20" height="20" viewBox="0 0 20 20" fill="none" xmlns="http://www.w3.org/2000/svg">
<path d="M10.25 18.3334C7.99998 18.3334 5.83331 17.5001 4.16664 15.8334C0.83331 12.5001 0.83331 7.25008 4.08331 4.00008C5.24998 2.75008 6.83331 1.91674 8.58331 1.66674C8.91664 1.58341 9.24998 1.75008 9.41664 2.08341C9.58331 2.41674 9.58331 2.75008 9.33331 3.00008C7.49998 5.08341 7.66664 8.33341 9.66664 10.3334C11.6666 12.3334 14.8333 12.5001 16.9166 10.6667C17.1666 10.4167 17.5833 10.4167 17.8333 10.5834C18.1666 10.7501 18.3333 11.0834 18.25 11.4167C18 13.1667 17.1666 14.6667 16 15.9167C14.4166 17.5001 12.3333 18.3334 10.25 18.3334Z" fill="#98A2B3"/>
</svg>
