<svg width="20" height="20" viewBox="0 0 20 20" fill="none" xmlns="http://www.w3.org/2000/svg">
<g clip-path="url(#clip0_0_4558)">
<path d="M10 4.3335C7.00004 4.3335 4.58337 6.75016 4.58337 9.75016C4.58337 12.7502 7.00004 15.1668 10 15.1668C13 15.1668 15.4167 12.7502 15.4167 9.75016C15.4167 6.75016 13 4.3335 10 4.3335Z" fill="#0841D4"/>
<path d="M10.0001 3.8335C10.5001 3.8335 10.8334 3.50016 10.8334 3.00016V1.66683C10.8334 1.16683 10.5001 0.833496 10.0001 0.833496C9.50008 0.833496 9.16675 1.16683 9.16675 1.66683V3.00016C9.16675 3.41683 9.50008 3.8335 10.0001 3.8335Z" fill="#0841D4"/>
<path d="M4.41667 5.58333C4.58333 5.75 4.83333 5.83333 5 5.83333C5.16667 5.83333 5.41667 5.75 5.58333 5.58333C5.91667 5.25 5.91667 4.75 5.58333 4.41667L4.66667 3.5C4.33333 3.16667 3.83333 3.16667 3.5 3.5C3.16667 3.83333 3.16667 4.33333 3.5 4.66667L4.41667 5.58333Z" fill="#0841D4"/>
<path d="M3.83337 10.0003C3.83337 9.50033 3.50004 9.16699 3.00004 9.16699H1.66671C1.16671 9.16699 0.833374 9.50033 0.833374 10.0003C0.833374 10.5003 1.16671 10.8337 1.66671 10.8337H3.00004C3.41671 10.8337 3.83337 10.5003 3.83337 10.0003Z" fill="#0841D4"/>
<path d="M4.41667 14.417L3.5 15.3337C3.16667 15.667 3.16667 16.167 3.5 16.5003C3.66667 16.667 3.91667 16.7503 4.08333 16.7503C4.25 16.7503 4.5 16.667 4.66667 16.5003L5.58333 15.5837C5.91667 15.2503 5.91667 14.7503 5.58333 14.417C5.25 14.0837 4.75 14.0837 4.41667 14.417Z" fill="#0841D4"/>
<path d="M10.0001 16.167C9.50008 16.167 9.16675 16.5003 9.16675 17.0003V18.3337C9.16675 18.8337 9.50008 19.167 10.0001 19.167C10.5001 19.167 10.8334 18.8337 10.8334 18.3337V17.0003C10.8334 16.5837 10.5001 16.167 10.0001 16.167Z" fill="#0841D4"/>
<path d="M15.5834 14.417C15.2501 14.0837 14.7501 14.0837 14.4167 14.417C14.0834 14.7503 14.0834 15.2503 14.4167 15.5837L15.3334 16.5003C15.5001 16.667 15.7501 16.7503 15.9167 16.7503C16.0834 16.7503 16.3334 16.667 16.5001 16.5003C16.8334 16.167 16.8334 15.667 16.5001 15.3337L15.5834 14.417Z" fill="#0841D4"/>
<path d="M18.3334 9.16699H17.0001C16.5001 9.16699 16.1667 9.50033 16.1667 10.0003C16.1667 10.5003 16.5001 10.8337 17.0001 10.8337H18.3334C18.8334 10.8337 19.1667 10.5003 19.1667 10.0003C19.1667 9.50033 18.8334 9.16699 18.3334 9.16699Z" fill="#0841D4"/>
<path d="M15.0001 5.83333C15.2501 5.83333 15.4167 5.75 15.5834 5.58333L16.5001 4.66667C16.8334 4.33333 16.8334 3.83333 16.5001 3.5C16.1667 3.16667 15.6667 3.16667 15.3334 3.5L14.4167 4.41667C14.0834 4.75 14.0834 5.25 14.4167 5.58333C14.5834 5.75 14.7501 5.83333 15.0001 5.83333Z" fill="#0841D4"/>
</g>
<defs>
<clipPath id="clip0_0_4558">
<rect width="20" height="20" fill="white"/>
</clipPath>
</defs>
</svg>
